<?xml version="1.0" encoding="UTF-8"?> <svg xmlns="http://www.w3.org/2000/svg" width="334" height="128" viewBox="0 0 334 128" fill="none"> <path d="M195.555 74.6871V7.12402H124.464V27.0353C124.464 31.302 124.464 43.3909 122.331 52.991C121.264 57.2577 117.709 68.6355 113.442 74.68H105.598L94.5903 95.9993H206.221V74.6907H195.555V74.6871ZM143.288 54.7688C145.421 45.8798 145.776 36.9909 145.776 28.3899H174.221V74.68H137.243C140.088 67.5689 141.865 61.8799 143.288 54.7688Z" fill="#1E1E1E"></path> <path d="M64.0004 7.11182V74.6678H21.2979V7.11182H0V96.0013H85.3232V7.11182H64.0004Z" fill="#1E1E1E"></path> <path d="M258.849 77.5124C244.982 77.5124 233.604 66.1345 233.604 52.2678C233.604 38.401 244.982 27.0231 258.849 27.0231C266.316 27.0231 272.716 30.2232 277.338 35.201L286.938 16.712C279.116 10.6675 269.516 6.75635 258.849 6.75635C233.96 6.75635 213.337 27.0231 213.337 52.2678C213.337 77.5124 233.604 97.7792 258.849 97.7792C273.782 97.7792 287.293 90.3125 295.471 78.9346L279.116 67.2012C274.849 73.2457 267.382 77.5124 258.849 77.5124Z" fill="#1E1E1E"></path> <path d="M72.3331 128H34.8467L62.9357 74.666H100.422L72.3331 128Z" fill="#ED2D23"></path> <path d="M305.504 53.3337H268.014L296.103 0H333.593L305.504 53.3337Z" fill="#00ADEF"></path> </svg> 